<svg width="195" height="20" viewBox="0 0 195 20" fill="none" xmlns="http://www.w3.org/2000/svg">
<path d="M0.393555 13.6045H4.11328C4.13867 15.0898 5.10352 16.0674 6.55078 16.0674C8.15039 16.0674 9.01367 15.0771 9.01367 13.2363V0.680664H12.8477V13.2617C12.8477 17.1592 10.5117 19.3809 6.58887 19.3809C2.84375 19.3809 0.393555 17.1084 0.393555 13.6045ZM30.2631 19L28.8666 14.5566H22.4301L21.0336 19H17.098L23.4584 0.680664H27.9652L34.3383 19H30.2631ZM25.6039 4.18457L23.2553 11.6875H28.0414L25.6928 4.18457H25.6039ZM54.7371 19H50.9031V11.2812H42.6512V19H38.8172V0.680664H42.6512V8.12012H50.9031V0.680664H54.7371V19ZM64.218 19H60.384V0.680664H64.218V19ZM69.8648 0.680664H76.86C82.357 0.680664 85.5943 3.95605 85.5943 9.77051C85.5943 15.585 82.357 19 76.86 19H69.8648V0.680664ZM73.6988 3.8418V15.8262H76.4029C79.8307 15.8262 81.6842 13.7441 81.6842 9.7832C81.6842 5.94922 79.7799 3.8418 76.4029 3.8418H73.6988ZM114.344 19H110.51V11.2812H102.258V19H98.4242V0.680664H102.258V8.12012H110.51V0.680664H114.344V19ZM131.988 19L130.592 14.5566H124.155L122.759 19H118.823L125.183 0.680664H129.69L136.063 19H131.988ZM127.329 4.18457L124.98 11.6875H129.766L127.418 4.18457H127.329ZM139.476 13.7822H143.17C143.348 15.293 144.922 16.2832 146.953 16.2832C148.997 16.2832 150.394 15.3057 150.394 13.96C150.394 12.7666 149.518 12.1064 147.309 11.6113L144.922 11.0908C141.545 10.3672 139.882 8.65332 139.882 5.97461C139.882 2.59766 142.802 0.363281 146.89 0.363281C151.155 0.363281 153.834 2.55957 153.898 5.87305H150.305C150.178 4.32422 148.82 3.38477 146.903 3.38477C145.011 3.38477 143.741 4.28613 143.741 5.64453C143.741 6.77441 144.63 7.40918 146.738 7.8916L148.959 8.36133C152.628 9.14844 154.228 10.7227 154.228 13.5156C154.228 17.0703 151.346 19.3174 146.801 19.3174C142.396 19.3174 139.59 17.2227 139.476 13.7822ZM170.805 19L169.409 14.5566H162.972L161.576 19H157.64L164.001 0.680664H168.507L174.88 19H170.805ZM166.146 4.18457L163.797 11.6875H168.584L166.235 4.18457H166.146ZM183.028 19H179.359V0.680664H182.559L191.115 12.6143H191.217V0.680664H194.886V19H191.712L183.143 7.00293H183.028V19Z" fill="#FAFAFA"/>
</svg>
